<mxfile host="app.diagrams.net" modified="2023-05-04T10:33:44.805Z" agent="Mozilla/5.0 (Windows NT 10.0; Win64; x64) AppleWebKit/537.36 (KHTML, like Gecko) Chrome/113.0.0.0 Safari/537.36" etag="gODtpHk_mxVwKQeUfCkw" version="21.2.7" type="onedrive">
  <diagram name="Page-1" id="2YBvvXClWsGukQMizWep">
    <mxGraphModel grid="1" page="1" gridSize="10" guides="1" tooltips="1" connect="1" arrows="1" fold="1" pageScale="1" pageWidth="850" pageHeight="1100" math="0" shadow="0">
      <root>
        <mxCell id="0" />
        <mxCell id="1" parent="0" />
        <mxCell id="vbn1vjWYSr6YsiNQEqlZ-1" value="cd : getSuppliersCombos" style="shape=umlFrame;whiteSpace=wrap;html=1;pointerEvents=0;width=150;height=30;" vertex="1" parent="1">
          <mxGeometry x="10" y="11" width="560" height="209" as="geometry" />
        </mxCell>
        <mxCell id="vbn1vjWYSr6YsiNQEqlZ-34" style="edgeStyle=none;rounded=0;orthogonalLoop=1;jettySize=auto;html=1;endArrow=none;endFill=0;entryX=0;entryY=0;entryDx=0;entryDy=0;" edge="1" parent="1" target="vbn1vjWYSr6YsiNQEqlZ-33">
          <mxGeometry relative="1" as="geometry">
            <mxPoint x="10" y="80" as="sourcePoint" />
          </mxGeometry>
        </mxCell>
        <mxCell id="vbn1vjWYSr6YsiNQEqlZ-33" value="&lt;u&gt;orderManag: OrderManagment&lt;/u&gt;" style="html=1;whiteSpace=wrap;" vertex="1" parent="1">
          <mxGeometry x="140" y="80" width="180" height="40" as="geometry" />
        </mxCell>
        <mxCell id="vbn1vjWYSr6YsiNQEqlZ-51" value="" style="endArrow=none;html=1;rounded=0;entryX=0;entryY=1;entryDx=0;entryDy=0;exitX=0.5;exitY=1;exitDx=0;exitDy=0;" edge="1" parent="1">
          <mxGeometry width="50" height="50" relative="1" as="geometry">
            <mxPoint x="189" y="120" as="sourcePoint" />
            <mxPoint x="149" y="120" as="targetPoint" />
            <Array as="points">
              <mxPoint x="189" y="139" />
              <mxPoint x="149" y="139" />
            </Array>
          </mxGeometry>
        </mxCell>
        <mxCell id="vbn1vjWYSr6YsiNQEqlZ-57" value="getSuppliersCombos(r)" style="html=1;verticalAlign=bottom;endArrow=block;edgeStyle=elbowEdgeStyle;elbow=vertical;curved=0;rounded=0;" edge="1" parent="1">
          <mxGeometry x="0.2571" y="-22" width="80" relative="1" as="geometry">
            <mxPoint x="49" y="59.5" as="sourcePoint" />
            <mxPoint x="86" y="59" as="targetPoint" />
            <mxPoint as="offset" />
            <Array as="points">
              <mxPoint x="70" y="59" />
            </Array>
          </mxGeometry>
        </mxCell>
        <mxCell id="eug0yIInreZ6nuwDFGsd-1" value="&lt;u&gt;supplier : Supplier&lt;/u&gt;" style="rounded=0;whiteSpace=wrap;html=1;" vertex="1" parent="1">
          <mxGeometry x="440" y="80" width="120" height="40" as="geometry" />
        </mxCell>
        <mxCell id="eug0yIInreZ6nuwDFGsd-4" value="2. *[supplier in allSuppliers]&lt;br style=&quot;border-color: var(--border-color); font-size: 10px;&quot;&gt;&lt;span style=&quot;font-size: 10px;&quot;&gt;2.1. suppliersCombos +=&lt;/span&gt;&lt;br style=&quot;border-color: var(--border-color); font-size: 10px;&quot;&gt;&lt;span style=&quot;font-size: 10px;&quot;&gt;getSuppliersCombos(r \ (râˆ©supplier.getSupplierItems()))&lt;/span&gt;&lt;br style=&quot;border-color: var(--border-color); font-size: 10px;&quot;&gt;&lt;span style=&quot;font-size: 10px;&quot;&gt;&amp;nbsp;: Order Managment&lt;/span&gt;" style="html=1;verticalAlign=bottom;endArrow=block;edgeStyle=elbowEdgeStyle;elbow=vertical;curved=0;rounded=0;" edge="1" parent="1">
          <mxGeometry x="0.04" y="-59" width="80" relative="1" as="geometry">
            <mxPoint x="139" y="151.5" as="sourcePoint" />
            <mxPoint x="176" y="151" as="targetPoint" />
            <mxPoint as="offset" />
            <Array as="points">
              <mxPoint x="160" y="151" />
            </Array>
          </mxGeometry>
        </mxCell>
        <mxCell id="eug0yIInreZ6nuwDFGsd-5" value="2.1.1 getSupplierItems()" style="html=1;verticalAlign=bottom;endArrow=block;edgeStyle=elbowEdgeStyle;elbow=vertical;curved=0;rounded=0;" edge="1" parent="1">
          <mxGeometry x="1" y="16" width="80" relative="1" as="geometry">
            <mxPoint x="355" y="86.5" as="sourcePoint" />
            <mxPoint x="392" y="86" as="targetPoint" />
            <mxPoint as="offset" />
            <Array as="points">
              <mxPoint x="376" y="86" />
            </Array>
          </mxGeometry>
        </mxCell>
        <mxCell id="z5gsfy8mh2WQnusAvWPp-1" value="" style="endArrow=open;endFill=1;endSize=12;html=1;rounded=0;exitX=1;exitY=0.5;exitDx=0;exitDy=0;" edge="1" parent="1" source="vbn1vjWYSr6YsiNQEqlZ-33" target="eug0yIInreZ6nuwDFGsd-1">
          <mxGeometry width="160" relative="1" as="geometry">
            <mxPoint x="370" y="140" as="sourcePoint" />
            <mxPoint x="530" y="140" as="targetPoint" />
          </mxGeometry>
        </mxCell>
        <mxCell id="eaVEooknB9_Dvz67hfwM-1" value="&lt;u&gt;suppDataMapper: SupplierDataMapper&lt;/u&gt;" style="rounded=0;whiteSpace=wrap;html=1;" vertex="1" parent="1">
          <mxGeometry x="320" y="170" width="120" height="40" as="geometry" />
        </mxCell>
        <mxCell id="eaVEooknB9_Dvz67hfwM-2" value="" style="endArrow=open;endFill=1;endSize=12;html=1;rounded=0;exitX=0.5;exitY=1;exitDx=0;exitDy=0;entryX=0.414;entryY=-0.006;entryDx=0;entryDy=0;entryPerimeter=0;" edge="1" parent="1" source="vbn1vjWYSr6YsiNQEqlZ-33" target="eaVEooknB9_Dvz67hfwM-1">
          <mxGeometry width="160" relative="1" as="geometry">
            <mxPoint x="230" y="150" as="sourcePoint" />
            <mxPoint x="390" y="150" as="targetPoint" />
            <Array as="points">
              <mxPoint x="230" y="130" />
              <mxPoint x="370" y="130" />
              <mxPoint x="370" y="150" />
            </Array>
          </mxGeometry>
        </mxCell>
        <mxCell id="eaVEooknB9_Dvz67hfwM-3" value="&lt;font style=&quot;font-size: 9px;&quot;&gt;1.allSuppliers =&amp;nbsp;&lt;br&gt;FindAll()&lt;/font&gt;" style="html=1;verticalAlign=bottom;endArrow=block;edgeStyle=elbowEdgeStyle;elbow=vertical;curved=0;rounded=0;" edge="1" parent="1">
          <mxGeometry x="-0.44" y="10" width="80" relative="1" as="geometry">
            <mxPoint x="400" y="160.5" as="sourcePoint" />
            <mxPoint x="437" y="160" as="targetPoint" />
            <mxPoint as="offset" />
            <Array as="points">
              <mxPoint x="421" y="160" />
            </Array>
          </mxGeometry>
        </mxCell>
      </root>
    </mxGraphModel>
  </diagram>
</mxfile>
